<svg width="43" height="28" viewBox="0 0 43 28" fill="none" xmlns="http://www.w3.org/2000/svg">
<path d="M34.0546 9.92111C32.8146 9.92111 31.619 10.1889 30.5118 10.6352L29.0062 7.68969V3.00371C29.0062 2.73594 28.829 2.46817 28.5633 2.37891L25.0206 1.04006C24.6663 0.906172 24.3121 1.08469 24.1792 1.44171C24.0463 1.79874 24.2235 2.15577 24.5778 2.28965L27.7219 3.44999V7.2434H14.7467V5.94918H16.3409C16.6952 5.94918 17.0052 5.63678 17.0052 5.27975C17.0052 4.92273 16.6952 4.61033 16.3409 4.61033H12.2225C11.8682 4.61033 11.5582 4.92273 11.5582 5.27975C11.5582 5.63678 11.8682 5.94918 12.2225 5.94918H13.4181V7.77894L12.1339 10.5905C11.1596 10.1889 10.0525 9.96574 8.94542 9.96574C4.02987 9.96574 0 13.9823 0 18.9807C0 23.9791 3.98558 27.9956 8.94542 27.9956C13.6395 27.9956 17.4923 24.2914 17.8466 19.6501H20.725C20.9464 19.6501 21.1236 19.5608 21.2564 19.3823L28.2091 9.25168L29.3162 11.3492C26.792 12.8666 25.1092 15.7228 25.1092 18.936C25.1092 23.8898 29.0948 27.951 34.0546 27.951C39.0144 27.951 43 23.9344 43 18.936C43 13.9377 39.0144 9.92111 34.0546 9.92111ZM8.94542 26.6121C4.73841 26.6121 1.32853 23.1757 1.32853 18.936C1.32853 14.6963 4.73841 11.26 8.94542 11.26C9.87539 11.26 10.7611 11.4385 11.5582 11.7509L8.32544 18.6683C8.32544 18.6683 8.32544 18.6683 8.32544 18.7129C8.28115 18.8022 8.28115 18.8468 8.28115 18.936C8.28115 18.936 8.28115 18.936 8.28115 18.9807C8.28115 19.0699 8.28115 19.1146 8.32544 19.2038V19.2484C8.32544 19.2931 8.32544 19.2931 8.36972 19.3377C8.36972 19.3823 8.41401 19.3823 8.45829 19.427C8.45829 19.427 8.45829 19.427 8.45829 19.4716C8.50257 19.5162 8.59114 19.5608 8.63543 19.6055H8.67971C8.76828 19.6501 8.81256 19.6501 8.90113 19.6501H16.4737C16.1638 23.5328 12.931 26.6121 8.94542 26.6121ZM9.96396 18.2666L12.7539 12.331C14.8352 13.536 16.2966 15.7228 16.518 18.2666H9.96396ZM20.3708 18.2666H17.8023C17.5808 15.1873 15.8095 12.5542 13.2853 11.0814L14.4809 8.53763H27.0134L20.3708 18.2666ZM34.0103 26.6121C29.8033 26.6121 26.3934 23.1757 26.3934 18.936C26.3934 16.2137 27.8105 13.8484 29.9362 12.4649L33.4346 19.2484C33.5675 19.4716 33.7889 19.6055 34.0103 19.6055C34.0989 19.6055 34.2317 19.5608 34.3203 19.5162C34.6303 19.3377 34.7631 18.936 34.586 18.6236L31.0875 11.8401C32.0175 11.4831 32.9918 11.26 34.0103 11.26C38.2173 11.26 41.6272 14.6963 41.6272 18.936C41.6272 23.1757 38.2173 26.6121 34.0103 26.6121Z" fill="#00AEEF"/>
</svg>
