<svg width="95" height="95" viewBox="0 0 95 95" fill="none" xmlns="http://www.w3.org/2000/svg">
<circle cx="47.5" cy="47.5" r="47.5" fill="#00BAFF"/>
<path d="M87.9999 46.2636C87.9999 75.9779 58.3099 96.1551 31.3179 84.7837C4.32594 73.4131 -2.64038 37.7927 18.0184 16.7821C4.41053 30.622 4.41053 53.0609 18.0184 66.9016C31.6263 80.741 53.6888 80.741 67.2967 66.9016C81.7579 52.1933 76.8813 27.2599 57.9872 19.2999C39.0931 11.3398 18.3098 25.4633 18.3098 46.2636C18.3098 26.691 33.9101 10.8241 53.1547 10.8241C72.3993 10.8238 87.9999 26.6907 87.9999 46.2636Z" fill="white"/>
<path d="M73.5295 18.4663C66.5583 10.4843 57.1032 6 47.244 6C29.7937 6 15.6472 22.1971 15.6472 42.1765C15.6472 62.1558 29.7937 78.3529 47.244 78.3529C40.3429 78.3529 33.7243 75.2144 28.8445 69.6273C16.5048 55.4988 16.5048 32.5938 28.8445 18.4663C41.1839 4.33857 61.1901 4.33857 73.5295 18.4663Z" fill="white"/>
<path d="M57.5 42.25H40.7778V37.5C40.7778 34.0072 43.5684 31.1667 47 31.1667C50.4316 31.1667 53.2222 34.0072 53.2222 37.5C53.2222 38.374 53.9176 39.0833 54.7778 39.0833C55.638 39.0833 56.3333 38.374 56.3333 37.5C56.3333 32.2608 52.1473 28 47 28C41.8527 28 37.6667 32.2608 37.6667 37.5V42.25H36.5C34.5711 42.25 33 43.8476 33 45.8125V62.4375C33 64.4024 34.5711 66 36.5 66H57.5C59.4289 66 61 64.4024 61 62.4375V45.8125C61 43.8476 59.4289 42.25 57.5 42.25Z" fill="#00AEEF"/>
</svg>
