<svg width="95" height="95" viewBox="0 0 95 95" fill="none" xmlns="http://www.w3.org/2000/svg">
<circle cx="47.5" cy="47.5" r="47.5" fill="#C4C4C4"/>
<path d="M87.9999 46.2637C87.9999 75.9779 58.3099 96.1551 31.3179 84.7837C4.32594 73.4131 -2.64038 37.7928 18.0184 16.7821C4.41053 30.622 4.41053 53.061 18.0184 66.9016C31.6263 80.741 53.6888 80.741 67.2967 66.9016C81.7579 52.1934 76.8813 27.2599 57.9872 19.2999C39.0931 11.3399 18.3098 25.4633 18.3098 46.2637C18.3098 26.691 33.9101 10.8241 53.1547 10.8241C72.3993 10.8239 87.9999 26.6908 87.9999 46.2637Z" fill="white"/>
<path d="M73.5293 18.4663C66.5581 10.4843 57.103 6.00001 47.2437 6.00001C29.7934 6.00001 15.647 22.1971 15.647 42.1765C15.647 62.1558 29.7934 78.3529 47.2437 78.3529C40.3426 78.3529 33.7241 75.2144 28.8442 69.6273C16.5046 55.4988 16.5046 32.5938 28.8442 18.4663C41.1837 4.33858 61.1898 4.33858 73.5293 18.4663Z" fill="white"/>
</svg>
