<svg width="38" height="38" viewBox="0 0 38 38" fill="none" xmlns="http://www.w3.org/2000/svg">
<circle cx="19.5525" cy="22.1823" r="12.5105" fill="white"/>
<path d="M3.40744 17.7952C3.56756 17.4891 3.59891 17.1389 3.49566 16.8092L2.90962 14.9374C2.8441 14.7282 2.90246 14.4999 3.06035 14.3478L3.90325 13.5356C4.04072 13.4031 4.10934 13.2253 4.09646 13.0348C4.08357 12.8443 3.99162 12.6773 3.83766 12.5646C3.58025 12.3762 3.49328 12.0421 3.6262 11.7521C3.75924 11.4621 4.06911 11.3099 4.38004 11.3822L4.79769 11.4793C4.84643 11.4906 4.89075 11.4912 4.93058 11.4863L5.06086 11.4455C5.07627 11.4374 5.09 11.4292 5.10076 11.4217C5.15262 11.3859 5.24249 11.3042 5.26222 11.1587C5.34706 10.5316 5.12016 9.9007 4.65547 9.47113L4.44206 9.27391C4.08946 8.94806 3.97576 8.44897 4.15252 8.00249C4.32933 7.55599 4.7538 7.27003 5.23401 7.2737L8.86335 7.30252C9.02032 7.30377 9.17578 7.28062 9.32533 7.2338L14.6362 5.57094C17.72 4.60539 20.9529 4.67199 23.9854 5.76345C24.2862 5.87172 24.4422 6.2032 24.334 6.50396C24.2258 6.80463 23.8943 6.96067 23.5935 6.85255C20.8007 5.84729 17.8228 5.78604 14.9821 6.67547L9.67123 8.33833C9.40663 8.42118 9.13182 8.4621 8.85431 8.45991L5.23611 8.43143L5.34543 8.53249L7.58624 9.23274C8.17441 9.41656 8.5546 9.93359 8.55472 10.5499C8.55487 11.1661 8.17504 11.6833 7.58692 11.8674L5.47015 12.5302C5.38102 12.5668 5.28891 12.5953 5.19478 12.6146C5.22435 12.7255 5.24348 12.8401 5.25133 12.9568C5.28707 13.4862 5.08854 14.001 4.70639 14.3692L4.60221 14.4696L11.1917 16.2257C11.6751 16.3546 12.0071 16.7772 12.0178 17.2773C12.0286 17.7774 11.7151 18.2139 11.2376 18.3634L7.83 19.4304C7.28115 19.6022 6.69079 19.6442 6.12306 19.5516L4.58168 19.3003C4.63929 19.3578 4.70639 19.4077 4.78225 19.4473L7.06988 20.644C8.39925 21.3395 9.96706 21.3041 11.2637 20.5494L14.7894 18.4972C16.1866 17.6841 17.8757 17.646 19.3078 18.3952L20.0436 18.7801C21.7029 19.6481 23.6158 19.8708 25.4302 19.4072L32.5687 17.5829L31.9293 15.5408C31.1066 12.9134 29.5305 10.6308 27.3711 8.94013C27.1195 8.74306 27.0752 8.37936 27.2722 8.12769C27.4693 7.87611 27.833 7.83174 28.0847 8.02879C30.4295 9.86462 32.1409 12.3427 33.034 15.195L33.8557 17.8195C33.9031 17.971 33.8862 18.1355 33.8089 18.2742C33.7366 18.404 33.6174 18.5005 33.4764 18.5447C33.4666 18.5477 33.4567 18.5505 33.4467 18.5531L25.7169 20.5284C24.1349 20.9327 22.4879 20.8839 20.9516 20.4034L22.4254 25.1105C22.4397 25.1563 22.4474 25.2024 22.4502 25.2482C22.4906 25.2696 22.5306 25.292 22.5699 25.3158C23.1629 25.6746 23.5739 26.2717 23.6974 26.9538L23.9912 28.5767C24.0278 28.779 23.9539 28.9778 23.81 29.1083L24.2065 30.3747C24.5116 31.3492 23.9671 32.3902 22.9925 32.6954C22.018 33.0005 20.977 32.4559 20.6718 31.4814L20.2782 30.2243C20.1874 30.2163 20.1002 30.1868 20.0235 30.1391C20.0233 30.1392 20.0232 30.1394 20.0231 30.1395L14.8449 26.9176C14.5735 26.7487 14.4904 26.3919 14.6593 26.1204C14.8283 25.849 15.1851 25.7661 15.4565 25.9348L19.027 28.1565C18.8614 27.6649 18.8582 27.1323 19.0181 26.6389L11.4698 21.749C10.8667 22.0412 10.2262 22.2175 9.57729 22.2767L11.6386 23.5593C11.9099 23.7281 11.993 24.085 11.8242 24.3564C11.748 24.4788 11.6335 24.5629 11.506 24.6029C11.3507 24.6515 11.176 24.6347 11.027 24.5421L5.76032 21.265L4.24582 20.4727C3.27649 19.9657 2.90041 18.7646 3.40744 17.7952ZM7.24104 10.7628C7.37696 10.7202 7.39726 10.6113 7.39721 10.5501C7.39716 10.489 7.37688 10.38 7.24095 10.3375L6.31771 10.049C6.4065 10.3605 6.44605 10.6865 6.43369 11.0156L7.24106 10.7628L7.24104 10.7628ZM6.30941 18.4091C6.70018 18.4728 7.10643 18.4439 7.4843 18.3256L10.7455 17.3045L4.32829 15.5943L4.60036 16.4632C4.77248 17.013 4.74702 17.5927 4.53181 18.1191L6.30941 18.4091ZM19.5599 19.8324L19.5599 19.8324C19.5423 19.8234 19.5247 19.8147 19.5072 19.8056L18.7714 19.4207C18.5662 19.3133 18.3539 19.2277 18.1376 19.1632L20.0647 25.318C20.23 25.2177 20.4078 25.136 20.5957 25.0772C20.7836 25.0184 20.9762 24.9841 21.1692 24.9722L19.5599 19.8324ZM21.7763 31.1356C21.8908 31.5011 22.2811 31.7053 22.6466 31.5908C23.012 31.4764 23.2162 31.086 23.1018 30.7206L22.7214 29.5055L21.3958 29.9206L21.7763 31.1356L21.7763 31.1356ZM20.1712 27.9076L20.6434 28.9434L22.7611 28.2803L22.5584 27.1601C22.494 26.8046 22.2798 26.4932 21.9706 26.3062C21.6614 26.119 21.2863 26.0737 20.9414 26.1817C20.5965 26.2897 20.3143 26.5409 20.167 26.8708C20.0198 27.2009 20.0212 27.5788 20.1712 27.9076ZM18.7865 25.1099L16.8821 19.0273C16.3593 19.0662 15.8434 19.2229 15.3717 19.4974L12.6069 21.1066L18.7865 25.1099Z" fill="#00AEEF"/>
<path d="M13.4285 8.86834C13.4452 8.5915 13.656 8.3653 13.931 8.32928L18.4351 7.73844C20.6173 7.45219 22.8392 7.94938 24.6914 9.13843C25.0145 9.34576 25.1834 9.71088 25.1323 10.0913C25.0812 10.4719 24.8219 10.7794 24.4555 10.8941L22.4708 11.5156C22.2973 11.5699 22.1125 11.5748 21.9363 11.5298L13.8628 9.46384C13.594 9.39504 13.4119 9.14528 13.4285 8.86834ZM22.1737 10.3957L23.7305 9.90823C22.1789 9.01471 20.3672 8.65238 18.5856 8.88607L17.0575 9.08652L22.1737 10.3957Z" fill="#00AEEF"/>
<path d="M24.5805 12.3987C24.7283 12.007 25.1077 11.7716 25.5243 11.8124L26.8218 11.94C28.4371 12.0988 29.8651 13.1122 30.5484 14.5845C30.6488 14.8008 30.651 15.0498 30.5547 15.2678C30.4582 15.4857 30.2725 15.6516 30.045 15.7228C29.1706 15.9966 28.2046 15.8404 27.461 15.3051L24.9014 13.4623C24.5616 13.2178 24.4327 12.7903 24.5805 12.3987ZM28.1373 14.3657C28.4738 14.608 28.8857 14.7217 29.2934 14.6941C28.7311 13.7982 27.7742 13.1967 26.7084 13.0919L26.314 13.053L28.1373 14.3657Z" fill="#00AEEF"/>
<path d="M15.905 14.5201C15.9818 13.9796 16.3982 13.5769 16.9411 13.5184C19.998 13.189 23.0512 13.7727 25.7709 15.2065L25.9569 15.3046C26.3395 15.5062 26.5266 15.9383 26.4121 16.3553C26.3274 16.6637 26.0966 16.895 25.8073 16.9856C25.7056 17.0174 25.5966 17.0319 25.4843 17.0262L19.06 16.7C18.927 16.6932 18.7971 16.6642 18.6737 16.6136L16.6211 15.7706C16.116 15.5633 15.8283 15.0607 15.905 14.5201ZM17.0608 14.7L19.1186 15.544L24.3655 15.8104C22.0766 14.793 19.5722 14.3991 17.0652 14.6692C17.0601 14.6697 17.0565 14.6705 17.0543 14.671C17.0513 14.6773 17.0498 14.6883 17.0509 14.6951C17.0528 14.6963 17.056 14.698 17.0608 14.7Z" fill="#00AEEF"/>
<path d="M9.51877 12.3441C9.51565 11.8846 9.80818 11.4837 10.2467 11.3464L11.4661 10.9645C12.4067 10.6701 13.4055 10.6551 14.3545 10.9214L15.4718 11.2348C15.9181 11.36 16.2225 11.7555 16.2294 12.2189C16.2364 12.6823 15.9439 13.0866 15.5016 13.2251L14.2507 13.6168C13.2817 13.9201 12.2554 13.927 11.2824 13.6368L10.2601 13.3318C9.8198 13.2005 9.52188 12.8035 9.51877 12.3441ZM11.6133 12.5277C12.3644 12.7517 13.1568 12.7464 13.9048 12.5122L14.7719 12.2407L14.0417 12.0358C13.3091 11.8303 12.538 11.8418 11.8119 12.0692L10.9651 12.3343L11.6133 12.5277Z" fill="#00AEEF"/>
<path d="M12.6982 24.8991C12.8669 24.6275 13.2238 24.5443 13.4952 24.7128L13.5366 24.7385C13.8081 24.9072 13.8916 25.264 13.7229 25.5355C13.6467 25.6581 13.5322 25.7424 13.4045 25.7824C13.2494 25.8309 13.0748 25.8142 12.926 25.7218L12.8846 25.696C12.613 25.5274 12.5296 25.1705 12.6982 24.8991Z" fill="#00AEEF"/>
</svg>
