<svg width="27" height="27" viewBox="0 0 27 27" fill="none" xmlns="http://www.w3.org/2000/svg">
<path d="M14.3419 7.43311C13.8761 7.43311 13.4984 7.81064 13.4982 8.27648L13.4961 13.3361C13.4961 13.5602 13.5851 13.7745 13.7433 13.9326L17.3696 17.5582C17.6991 17.8877 18.2332 17.8876 18.5627 17.5582C18.8921 17.2287 18.8921 16.6945 18.5626 16.365L15.1836 12.9867L15.1856 8.2772C15.1858 7.81108 14.808 7.43311 14.3419 7.43311Z" fill="#00AEEF"/>
<path d="M15.1875 0.683105C9.24846 0.683105 4.33312 5.09385 3.50989 10.8081H1.51558C1.08158 10.8081 0.853666 11.3231 1.14552 11.6444L3.51333 14.2504C3.89735 14.6731 4.55676 14.6889 4.96057 14.2851L7.58397 11.6617C7.89895 11.3467 7.67587 10.8081 7.23041 10.8081H5.21494C6.02215 6.02721 10.1803 2.37062 15.1875 2.37062C20.7708 2.37062 25.3126 6.91236 25.3126 12.4956C25.3126 18.0789 20.7708 22.6207 15.1875 22.6207C12.3314 22.6207 9.66431 21.4443 7.74879 19.3659C7.43316 19.0234 6.90571 18.9555 6.5386 19.2421C6.17123 19.5289 6.10399 20.0616 6.41585 20.408C8.65648 22.8963 11.8083 24.3081 15.1875 24.3081C21.701 24.3081 27 19.0083 27 12.4956C27 5.98297 21.701 0.683154 15.1875 0.683105Z" fill="#00AEEF"/>
</svg>
