<?xml version="1.0" encoding="utf-8"?>
<!-- Generator: Adobe Illustrator 16.0.0, SVG Export Plug-In . SVG Version: 6.00 Build 0)  -->
<!DOCTYPE svg PUBLIC "-//W3C//DTD SVG 1.1//EN" "http://www.w3.org/Graphics/SVG/1.1/DTD/svg11.dtd">
<svg version="1.1" id="Layer_1" xmlns="http://www.w3.org/2000/svg" xmlns:xlink="http://www.w3.org/1999/xlink" x="0px" y="0px"
	 width="1417.32px" height="571.667px" viewBox="0 0 1417.32 571.667" enable-background="new 0 0 1417.32 571.667"
	 xml:space="preserve">
<g>
	<polygon points="1005.721,177.897 1005.721,129.307 819.07,129.307 819.07,442.797 1005.721,442.797 1005.721,394.111 
		867.76,394.111 867.76,307.033 986.791,307.033 986.791,258.346 867.76,258.346 867.76,177.897 	"/>
	<polygon points="1270.93,129.258 1176.871,342.154 1083.205,129.258 1030.713,129.258 1175.309,450.262 1178.627,450.262 
		1323.813,129.258 	"/>
	<path d="M771.963,284.915c0,115.691-117.57,194.25-224.456,149.976c-106.886-44.271-134.472-182.957-52.665-264.761
		c-53.886,53.885-53.886,141.25,0,195.138c53.886,53.883,141.252,53.883,195.138,0c57.265-57.266,37.954-154.343-36.865-185.335
		S495.996,203.93,495.996,284.915c0-76.205,61.776-137.982,137.983-137.982C710.186,146.932,771.963,208.709,771.963,284.915z"/>
	<path d="M724.416,170.129c-30.443-30.445-71.733-47.549-114.788-47.549c-76.205,0-137.982,61.779-137.982,137.984
		c0,76.205,61.777,137.984,137.982,137.984c-30.137,0-59.04-11.971-80.35-33.281c-53.887-53.889-53.887-141.253,0-195.138
		C583.164,116.243,670.53,116.243,724.416,170.129z"/>
	<polygon points="396.711,121.405 247.039,350.105 97.165,121.405 93.508,121.405 93.508,442.797 142.195,442.797 142.195,268.149 
		246.844,437.529 247.234,437.529 351.685,268.344 351.685,442.797 400.371,442.797 400.371,121.405 	"/>
</g>
</svg>
