<svg width="31" height="31" viewBox="0 0 31 31" fill="none" xmlns="http://www.w3.org/2000/svg">
<path d="M31 15.2214C31 26.4548 19.7757 34.0828 9.57142 29.7838C-0.632878 25.4852 -3.26649 12.0189 4.54354 4.07589C-0.600897 9.30805 -0.600897 17.7911 4.54354 23.0235C9.68799 28.2555 18.0287 28.2555 23.1732 23.0235C28.6402 17.4631 26.7966 8.03703 19.6537 5.02774C12.5108 2.01846 4.65371 7.35782 4.65371 15.2214C4.65371 7.82195 10.5514 1.82349 17.8268 1.82349C25.1022 1.82339 31 7.82186 31 15.2214Z" fill="#00AEEF"/>
<path d="M25.5293 4.71288C22.8939 1.69529 19.3194 0 15.5921 0C8.99502 0 3.64697 6.12331 3.64697 13.6765C3.64697 21.2296 8.99502 27.3529 15.5921 27.3529C12.9831 27.3529 10.481 26.1664 8.63619 24.0542C3.97118 18.713 3.97118 10.0538 8.63619 4.71288C13.3011 -0.628101 20.8644 -0.628101 25.5293 4.71288Z" fill="#00AEEF"/>
</svg>
