<svg width="52" height="66" viewBox="0 0 52 66" fill="none" xmlns="http://www.w3.org/2000/svg">
<g filter="url(#filter0_d)">
<path d="M40.7525 41.5122C38.7699 44.6531 36.5736 47.6184 34.156 50.4669C32.3875 52.5508 30.5528 54.5519 28.4873 56.3824C27.9228 56.8824 27.3621 57.3778 26.718 57.7911C26.6895 57.8095 26.6605 57.8265 26.6304 57.8428C26.5684 57.876 26.5046 57.9038 26.4377 57.9269C26.2963 57.9757 26.1565 57.9994 26.0063 58C25.8537 58.0006 25.7119 57.9776 25.5682 57.9284C25.5002 57.9053 25.4354 57.8772 25.3724 57.8437C25.3419 57.8276 25.3123 57.8102 25.2832 57.7917C24.6617 57.3935 24.1195 56.917 23.5738 56.4361C21.4817 54.5921 19.6294 52.5703 17.8428 50.4651C15.4248 47.6159 13.2283 44.6502 11.2455 41.5087C7.56588 35.6789 4 28.1496 4 20.9843C4 9.39499 13.8498 0 25.9999 0C38.1502 0 48 9.39518 48 20.9843C48 28.1507 44.4329 35.6816 40.7525 41.5122ZM28.7713 6.01155C20.1068 6.01155 13.0832 12.7111 13.0832 20.9753C13.0832 12.1928 22.4402 6.22922 30.9471 9.59028C39.4537 12.9512 41.6491 23.4789 35.1384 29.6892C29.0119 35.5328 19.0787 35.5328 12.952 29.6892C6.82551 23.8452 6.82551 14.3708 12.952 8.52718C3.65087 17.3988 6.78721 32.4385 18.9397 37.2395C31.0922 42.041 44.4594 33.5215 44.4594 20.9753C44.4594 12.7109 37.4357 6.01155 28.7713 6.01155ZM39.0536 8.52699C35.5924 5.22541 30.8979 3.37063 26.0027 3.37063C17.3385 3.37063 10.3148 10.0704 10.3148 18.3346C10.3148 26.5987 17.3385 33.2981 26.0027 33.2981C22.5764 33.2981 19.2903 32.0001 16.8672 29.689C10.7405 23.8452 10.7405 14.3706 16.8672 8.52699C22.9939 2.68338 32.9267 2.68338 39.0536 8.52699Z" fill="white"/>
</g>
<path d="M39.4114 39.2178C37.609 42.0338 35.6124 44.6924 33.4145 47.2462C31.8068 49.1145 30.1389 50.9086 28.2612 52.5497C27.748 52.998 27.2383 53.4421 26.6527 53.8127C26.6268 53.8292 26.6004 53.8444 26.5731 53.859C26.5167 53.8889 26.4588 53.9137 26.3979 53.9345C26.2694 53.9782 26.1423 53.9995 26.0057 54C25.867 54.0006 25.7381 53.9799 25.6074 53.9358C25.5456 53.9151 25.4867 53.8899 25.4295 53.8599C25.4018 53.8455 25.3748 53.8299 25.3484 53.8132C24.7834 53.4562 24.2905 53.029 23.7944 52.5979C21.8924 50.9446 20.2085 49.132 18.5844 47.2446C16.3862 44.6901 14.3894 42.0312 12.5868 39.2147C9.24171 33.988 6 27.2376 6 20.8135C6 10.4231 14.9544 2 25.9999 2C37.0456 2 46 10.4233 46 20.8135C46 27.2386 42.7572 33.9904 39.4114 39.2178ZM28.5193 7.38966C20.6426 7.38966 14.2574 13.3962 14.2574 20.8054C14.2574 12.9314 22.7638 7.58482 30.4973 10.5982C38.2306 13.6114 40.2265 23.05 34.3076 28.6179C28.7381 33.857 19.7079 33.857 14.1382 28.6179C8.56865 23.3784 8.56865 14.8842 14.1382 9.64506C5.68261 17.599 8.53383 31.0828 19.5816 35.3871C30.6293 39.692 42.7813 32.0538 42.7813 20.8054C42.7813 13.396 36.3961 7.38966 28.5193 7.38966ZM37.8669 9.64489C34.7204 6.68485 30.4527 5.02194 26.0025 5.02194C18.1259 5.02194 11.7407 11.0286 11.7407 18.4379C11.7407 25.8471 18.1259 31.8535 26.0025 31.8535C22.8876 31.8535 19.9002 30.6898 17.6975 28.6177C12.1277 23.3784 12.1277 14.884 17.6975 9.64489C23.2672 4.40579 32.297 4.40579 37.8669 9.64489Z" fill="#00AEEF"/>
<circle cx="26.5" cy="21.5" r="17.5" fill="#00AEEF"/>
<path d="M20.2275 42H18.8164V36.5605L17.1318 37.083V35.9355L20.0762 34.8809H20.2275V42ZM23.502 38.5039L23.9121 34.8906H27.8965V36.0674H25.0693L24.8936 37.5957C25.2288 37.4167 25.5853 37.3271 25.9629 37.3271C26.64 37.3271 27.1706 37.5371 27.5547 37.957C27.9388 38.377 28.1309 38.9645 28.1309 39.7197C28.1309 40.1787 28.0332 40.5905 27.8379 40.9551C27.6458 41.3164 27.3691 41.598 27.0078 41.7998C26.6465 41.9984 26.2201 42.0977 25.7285 42.0977C25.2988 42.0977 24.9001 42.0114 24.5322 41.8389C24.1644 41.6631 23.873 41.4173 23.6582 41.1016C23.4466 40.7858 23.3343 40.4261 23.3213 40.0225H24.7178C24.7471 40.3187 24.8496 40.5498 25.0254 40.7158C25.2044 40.8786 25.4372 40.96 25.7236 40.96C26.0426 40.96 26.2884 40.846 26.4609 40.6182C26.6335 40.387 26.7197 40.0615 26.7197 39.6416C26.7197 39.238 26.6204 38.9287 26.4219 38.7139C26.2233 38.499 25.9417 38.3916 25.5771 38.3916C25.2419 38.3916 24.9701 38.4795 24.7617 38.6553L24.625 38.7822L23.502 38.5039ZM29.7646 36.2578C29.7646 35.8216 29.9062 35.4684 30.1895 35.1982C30.4727 34.9248 30.8438 34.7881 31.3027 34.7881C31.7682 34.7881 32.1426 34.9232 32.4258 35.1934C32.709 35.4603 32.8506 35.8232 32.8506 36.2822V36.6338C32.8506 37.0732 32.709 37.4264 32.4258 37.6934C32.1426 37.9603 31.7715 38.0938 31.3125 38.0938C30.8503 38.0938 30.4759 37.9603 30.1895 37.6934C29.9062 37.4232 29.7646 37.0602 29.7646 36.6045V36.2578ZM30.7021 36.6338C30.7021 36.8291 30.7575 36.987 30.8682 37.1074C30.9821 37.2246 31.1302 37.2832 31.3125 37.2832C31.4948 37.2832 31.6396 37.223 31.7471 37.1025C31.8545 36.9821 31.9082 36.821 31.9082 36.6191V36.2578C31.9082 36.0625 31.8545 35.9046 31.7471 35.7842C31.6396 35.6637 31.4915 35.6035 31.3027 35.6035C31.1237 35.6035 30.9788 35.6637 30.8682 35.7842C30.7575 35.9014 30.7021 36.0658 30.7021 36.2773V36.6338ZM33.1631 40.2568C33.1631 39.8174 33.3063 39.4642 33.5928 39.1973C33.8792 38.9271 34.2503 38.792 34.7061 38.792C35.1683 38.792 35.541 38.9255 35.8242 39.1924C36.1107 39.4561 36.2539 39.8206 36.2539 40.2861V40.6377C36.2539 41.0739 36.1139 41.4271 35.834 41.6973C35.554 41.9642 35.1813 42.0977 34.7158 42.0977C34.2471 42.0977 33.8711 41.9626 33.5879 41.6924C33.3047 41.4222 33.1631 41.0641 33.1631 40.6182V40.2568ZM34.1006 40.6377C34.1006 40.8167 34.1592 40.9697 34.2764 41.0967C34.3936 41.2236 34.54 41.2871 34.7158 41.2871C35.113 41.2871 35.3115 41.0674 35.3115 40.6279V40.2568C35.3115 40.0615 35.2562 39.9053 35.1455 39.7881C35.0348 39.6676 34.8883 39.6074 34.7061 39.6074C34.5238 39.6074 34.3773 39.6676 34.2666 39.7881C34.1559 39.9053 34.1006 40.0664 34.1006 40.2715V40.6377ZM31.5908 41.4678L30.9023 41.0967L34.374 35.54L35.0625 35.9111L31.5908 41.4678Z" fill="#00AEEF"/>
<g clip-path="url(#clip0)">
<path d="M34.1251 29.5833H28.7084C28.4094 29.5833 28.1667 29.3406 28.1667 29.0416C28.1667 28.7426 28.4094 28.4999 28.7084 28.4999H34.1251C35.021 28.4999 35.7501 27.7708 35.7501 26.8749V25.7916C35.7501 25.4926 35.9927 25.2499 36.2917 25.2499H37.3653C37.6643 25.2499 37.907 25.0073 37.907 24.7083V18.2083C37.907 17.9093 37.6643 17.6666 37.3653 17.6666H36.2917C35.9927 17.6666 35.7501 17.4239 35.7501 17.1249V16.0416C35.7501 15.1457 35.021 14.4166 34.1251 14.4166H30.8751C30.5761 14.4166 30.3334 14.1739 30.3334 13.8749C30.3334 13.5759 30.5761 13.3333 30.8751 13.3333H34.1251C35.6179 13.3333 36.8334 14.5488 36.8334 16.0416V16.5833H37.3653C38.2612 16.5833 38.9903 17.3123 38.9903 18.2083V24.7083C38.9903 25.6042 38.2612 26.3333 37.3653 26.3333H36.8334V26.8749C36.8334 28.3678 35.6179 29.5833 34.1251 29.5833Z" fill="white"/>
<path d="M20.0417 29.5833H15.7083C14.2155 29.5833 13 28.3678 13 26.8749V16.0416C13 14.5488 14.2155 13.3333 15.7083 13.3333H23.2917C23.5907 13.3333 23.8333 13.5759 23.8333 13.8749C23.8333 14.1739 23.5907 14.4166 23.2917 14.4166H15.7083C14.8124 14.4166 14.0833 15.1457 14.0833 16.0416V26.8749C14.0833 27.7708 14.8124 28.4999 15.7083 28.4999H20.0417C20.3407 28.4999 20.5833 28.7426 20.5833 29.0416C20.5833 29.3406 20.3407 29.5833 20.0417 29.5833Z" fill="white"/>
<path d="M23.0783 31.7499C22.9927 31.7499 22.9049 31.7294 22.8248 31.6871C22.5919 31.5636 22.4814 31.2895 22.5648 31.0382L24.8333 24.1666H20.5834C20.3819 24.1666 20.1977 24.055 20.1034 23.8763C20.0103 23.6975 20.0233 23.4819 20.1381 23.3162L27.6413 12.4829C27.7886 12.2705 28.0692 12.1947 28.3032 12.2944C28.5404 12.3984 28.6715 12.6551 28.6163 12.9075L27.0909 19.8333H31.4167C31.6225 19.8333 31.811 19.9503 31.9031 20.1355C31.9941 20.3208 31.9713 20.5418 31.8457 20.7054L23.5073 31.5387C23.4022 31.6763 23.2418 31.7499 23.0783 31.7499ZM21.6179 23.0833H25.5829C25.7573 23.0833 25.9198 23.1667 26.0217 23.3075C26.1235 23.4484 26.1517 23.6293 26.0964 23.795L24.5906 28.3548L30.316 20.9166H26.4171C26.2535 20.9166 26.0975 20.8419 25.9946 20.714C25.8917 20.5862 25.8527 20.4183 25.8873 20.2579L26.9663 15.3602L21.6179 23.0833Z" fill="white"/>
</g>
<defs>
<filter id="filter0_d" x="0" y="0" width="52" height="66" filterUnits="userSpaceOnUse" color-interpolation-filters="sRGB">
<feFlood flood-opacity="0" result="BackgroundImageFix"/>
<feColorMatrix in="SourceAlpha" type="matrix" values="0 0 0 0 0 0 0 0 0 0 0 0 0 0 0 0 0 0 127 0" result="hardAlpha"/>
<feOffset dy="4"/>
<feGaussianBlur stdDeviation="2"/>
<feColorMatrix type="matrix" values="0 0 0 0 0 0 0 0 0 0 0 0 0 0 0 0 0 0 0.25 0"/>
<feBlend mode="normal" in2="BackgroundImageFix" result="effect1_dropShadow"/>
<feBlend mode="normal" in="SourceGraphic" in2="effect1_dropShadow" result="shape"/>
</filter>
<clipPath id="clip0">
<rect width="26" height="26" fill="white" transform="translate(13 9)"/>
</clipPath>
</defs>
</svg>
