<svg width="29" height="29" viewBox="0 0 29 29" fill="none" xmlns="http://www.w3.org/2000/svg">
<path d="M3.06443 22.7402C2.70266 23.102 2.50342 23.583 2.50342 24.0946C2.50342 24.6063 2.70266 25.0873 3.06443 25.449C3.42619 25.8108 3.90718 26.01 4.41879 26.01C4.9304 26.01 5.41138 25.8108 5.77314 25.449C6.13491 25.0873 6.33415 24.6063 6.33415 24.0946C6.33415 23.583 6.13491 23.102 5.77314 22.7402C5.41138 22.3784 4.9304 22.1792 4.41879 22.1792C3.90718 22.1792 3.42614 22.3784 3.06443 22.7402ZM4.99692 24.6727C4.84252 24.8271 4.63718 24.9122 4.41879 24.9122C4.20039 24.9122 3.99511 24.8271 3.84065 24.6727C3.52181 24.354 3.52181 23.8352 3.84065 23.5165C3.99505 23.3621 4.20039 23.277 4.41879 23.277C4.63718 23.277 4.84246 23.3621 4.99692 23.5165C5.31571 23.8352 5.31571 24.354 4.99692 24.6727Z" fill="#00AEEF"/>
<path d="M17.0442 11.4688C16.8298 11.2546 16.4823 11.2545 16.268 11.4688L7.1422 20.5945C6.92786 20.8089 6.92786 21.1564 7.1422 21.3708C7.24939 21.478 7.38985 21.5316 7.53031 21.5316C7.67077 21.5316 7.81128 21.478 7.91842 21.3708L17.0442 12.2451C17.2586 12.0307 17.2586 11.6831 17.0442 11.4688Z" fill="#00AEEF"/>
<path d="M27.5173 4.1647C27.4424 4.00124 27.2923 3.88483 27.1154 3.85305C26.9386 3.82121 26.7573 3.87802 26.6301 4.00514L23.8096 6.82577H21.6871V4.70326L24.5077 1.88263C24.6348 1.75557 24.6916 1.57427 24.6598 1.39737C24.628 1.22041 24.5115 1.07035 24.3481 0.995479C23.1668 0.454451 21.8628 0.284792 20.5771 0.504892C19.2617 0.730152 18.0661 1.34951 17.1194 2.29616C16.24 3.17557 15.6381 4.28057 15.3787 5.49167C15.151 6.55501 15.1951 7.6532 15.5045 8.68915L4.51797 19.6756C3.31329 19.6472 2.14939 20.1115 1.29265 20.9683C-0.430883 22.6919 -0.430883 25.4964 1.29265 27.22C2.15444 28.0818 3.28645 28.5126 4.41851 28.5126C5.55058 28.5126 6.68258 28.0818 7.54432 27.22C8.40112 26.3632 8.86443 25.1999 8.8371 23.9947L12.6977 20.134C12.9121 19.9197 12.9121 19.5721 12.6977 19.3577C12.4834 19.1435 12.1359 19.1435 11.9215 19.3577L7.88841 23.3908C7.77452 23.5047 7.71645 23.6629 7.72946 23.8234C7.80866 24.7985 7.45826 25.7535 6.7681 26.4437C5.47253 27.7392 3.36445 27.7392 2.06887 26.4437C0.773301 25.1481 0.773301 23.04 2.06887 21.7444C2.75898 21.0543 3.71414 20.7043 4.68911 20.7831C4.84977 20.7963 5.00779 20.7381 5.12163 20.6241L16.5192 9.22656C16.6694 9.07633 16.7195 8.85278 16.6476 8.65282C15.9518 6.7166 16.4416 4.52603 17.8955 3.07221C19.2702 1.69749 21.2898 1.19445 23.1254 1.71209L20.7499 4.08758C20.647 4.19055 20.5891 4.33013 20.5891 4.47569V7.37448C20.5891 7.67757 20.8349 7.92336 21.138 7.92336H24.0368C24.1824 7.92336 24.322 7.86551 24.4249 7.76259L26.8005 5.38711C27.3181 7.22272 26.815 9.24231 25.4403 10.617C23.9865 12.0708 21.7959 12.5607 19.8597 11.8648C19.6597 11.7929 19.4362 11.843 19.2859 11.9932L15.4145 15.8647C15.2002 16.079 15.2002 16.4266 15.4145 16.641C15.6289 16.8553 15.9764 16.8553 16.1908 16.641L19.8236 13.0081C20.8595 13.3175 21.9577 13.3618 23.021 13.1339C24.2321 12.8745 25.337 12.2727 26.2165 11.3932C27.1631 10.4466 27.7825 9.25093 28.0077 7.93555C28.228 6.65002 28.0584 5.34599 27.5173 4.1647Z" fill="#00AEEF"/>
<path d="M14.0567 17.4498C13.9118 17.4498 13.7707 17.5086 13.6686 17.6106C13.5665 17.7127 13.5078 17.8543 13.5078 17.9987C13.5078 18.1436 13.5665 18.2846 13.6686 18.3867C13.7707 18.4888 13.9118 18.5475 14.0567 18.5475C14.201 18.5475 14.3426 18.4888 14.4447 18.3867C14.5468 18.2846 14.6055 18.143 14.6055 17.9987C14.6055 17.8543 14.5468 17.7127 14.4447 17.6106C14.3426 17.5086 14.201 17.4498 14.0567 17.4498Z" fill="#00AEEF"/>
<path d="M25.5984 17.171C25.5004 17.0012 25.3192 16.8966 25.1231 16.8966H20.7605C20.5644 16.8966 20.3832 17.0012 20.2851 17.171L18.1038 20.9492C18.0058 21.119 18.0058 21.3282 18.1038 21.4981L20.2851 25.2762C20.3832 25.446 20.5644 25.5506 20.7605 25.5506H25.1231C25.3192 25.5506 25.5004 25.446 25.5984 25.2762L27.7797 21.4981C27.8778 21.3282 27.8778 21.119 27.7797 20.9492L25.5984 17.171ZM24.8062 24.4528H21.0774L19.213 21.2236L21.0774 17.9944H24.8062L26.6706 21.2236L24.8062 24.4528Z" fill="#00AEEF"/>
<path d="M22.9419 19.3577C21.9128 19.3577 21.0757 20.1948 21.0757 21.2239C21.0757 22.2529 21.9128 23.09 22.9419 23.09C23.9709 23.09 24.8081 22.2529 24.8081 21.2239C24.8081 20.1948 23.9709 19.3577 22.9419 19.3577ZM22.9419 21.9923C22.5181 21.9923 22.1734 21.6476 22.1734 21.2239C22.1734 20.8001 22.5181 20.4554 22.9419 20.4554C23.3656 20.4554 23.7103 20.8001 23.7103 21.2239C23.7103 21.6476 23.3656 21.9923 22.9419 21.9923Z" fill="#00AEEF"/>
</svg>
