<?xml version="1.0" encoding="UTF-8" standalone="no"?>
<svg
   xmlns:dc="http://purl.org/dc/elements/1.1/"
   xmlns:cc="http://creativecommons.org/ns#"
   xmlns:rdf="http://www.w3.org/1999/02/22-rdf-syntax-ns#"
   xmlns:svg="http://www.w3.org/2000/svg"
   xmlns="http://www.w3.org/2000/svg"
   xmlns:sodipodi="http://sodipodi.sourceforge.net/DTD/sodipodi-0.dtd"
   xmlns:inkscape="http://www.inkscape.org/namespaces/inkscape"
   version="1.1"
   id="Default"
   x="0px"
   y="0px"
   width="128"
   height="176.89516"
   viewBox="0 0 128 176.89515"
   enable-background="new 0 0 841.89 595.28"
   xml:space="preserve"
   sodipodi:docname="selected-marker.svg"
   inkscape:version="1.0.2 (e86c8708, 2021-01-15)"><metadata
   id="metadata9"><rdf:RDF><cc:Work
       rdf:about=""><dc:format>image/svg+xml</dc:format><dc:type
         rdf:resource="http://purl.org/dc/dcmitype/StillImage" /><dc:title /></cc:Work></rdf:RDF></metadata><defs
   id="defs7" /><sodipodi:namedview
   inkscape:document-rotation="0"
   pagecolor="#ffffff"
   bordercolor="#666666"
   borderopacity="1"
   objecttolerance="10"
   gridtolerance="10"
   guidetolerance="10"
   inkscape:pageopacity="0"
   inkscape:pageshadow="2"
   inkscape:window-width="1920"
   inkscape:window-height="972"
   id="namedview5"
   showgrid="false"
   fit-margin-top="0"
   fit-margin-left="0"
   fit-margin-right="0"
   fit-margin-bottom="0"
   inkscape:zoom="1.4144604"
   inkscape:cx="19.568629"
   inkscape:cy="161.51278"
   inkscape:window-x="0"
   inkscape:window-y="23"
   inkscape:window-maximized="1"
   inkscape:current-layer="Default"
   inkscape:snap-grids="false"
   inkscape:snap-to-guides="false" />
<path
   style="stroke-width:0;stroke-miterlimit:4;stroke-dasharray:none"
   fill="#0059b3"
   d="m 106.91645,126.60866 c -5.76778,9.57951 -12.156839,18.62349 -19.189941,27.31103 -5.144735,6.35581 -10.481982,12.45902 -16.490686,18.04186 -1.642185,1.52493 -3.273286,3.03586 -5.147069,4.29652 -0.08284,0.056 -0.167427,0.10792 -0.254932,0.15751 -0.180261,0.1015 -0.365773,0.18609 -0.560618,0.25668 -0.411276,0.14876 -0.817884,0.2211 -1.254828,0.22285 -0.443944,0.002 -0.856386,-0.0683 -1.274662,-0.21818 -0.197762,-0.0706 -0.386191,-0.15635 -0.569369,-0.25844 -0.08867,-0.049 -0.17501,-0.10209 -0.259599,-0.15867 -1.807862,-1.21458 -3.385293,-2.66775 -4.972641,-4.13434 C 50.855812,166.50121 45.467229,160.335 40.269991,153.91444 33.235722,145.22457 26.846077,136.17942 21.07772,126.59816 10.373475,108.81765 0,85.853893 0,64.000292 0,28.653939 28.653939,0 63.999708,0 99.346061,0 128,28.654522 128,64.000292 128,85.857394 117.62302,108.82581 106.91645,126.60866 Z M 72.061874,18.334717 c -25.205643,0 -45.638156,20.433097 -45.638156,45.638156 0,-26.78599 27.2206,-44.974281 51.967714,-34.723314 24.746528,10.250384 31.133258,42.359037 12.193004,61.299875 -17.822519,17.822516 -46.71914,17.822516 -64.542242,0 -17.822519,-17.823686 -17.822519,-46.719723 0,-64.542242 -27.0578401,27.05784 -17.9339425,72.927594 17.418827,87.570168 35.35277,14.64432 74.239009,-11.33954 74.239009,-49.604487 0,-25.205642 -20.432514,-45.638156 -45.638156,-45.638156 z m 29.912266,7.671891 C 91.905184,15.937069 78.248506,10.280136 64.007875,10.280136 c -25.205058,0 -45.637572,20.43368 -45.637572,45.638739 0,25.205059 20.432514,45.637575 45.637572,45.637575 -9.967449,0 -19.527124,-3.958747 -26.575977,-11.0076 -17.823102,-17.823102 -17.823102,-46.719723 0,-64.542242 17.823103,-17.8225185 46.718557,-17.8225185 64.542242,0 z"
   id="path2" />
<path
   style="fill:#a0a0a0;stroke:none;stroke-width:0.706983"
   d="M 55.169176,169.47435 C 34.587782,149.50305 14.775308,119.15038 6.2000938,94.45382 -1.5538739,72.122449 -1.447182,53.89776 6.5356564,37.134339 10.24424,29.346562 14.382298,23.632715 20.478815,17.881571 33.126431,5.9504509 50.496626,-0.47840114 67.290007,0.55636382 92.460743,2.1073196 114.75818,18.323421 123.4091,41.369701 c 7.60053,20.24801 4.49814,43.24197 -9.65689,71.573769 -9.77676,19.56854 -24.267442,39.80754 -39.45679,55.1089 -6.434305,6.48176 -8.662033,8.30706 -10.138539,8.30706 -1.436483,0 -3.601433,-1.65847 -8.987705,-6.88508 z m 23.814449,-53.53378 c 6.812478,-1.97065 16.030636,-7.13029 21.197525,-11.86481 9.20447,-8.434229 14.88429,-18.791847 17.01537,-31.02893 1.89475,-10.880007 0.70851,-19.379273 -4.13131,-29.600278 C 107.47016,31.630615 94.847915,21.788732 81.783166,19.055167 61.32222,14.77408 40.596712,24.57029 31.141693,42.99159 c -2.533675,4.936379 -4.890523,13.687108 -4.770511,17.712401 0.07648,2.565321 0.15552,2.415811 0.700481,-1.325053 0.87885,-6.032841 2.446205,-10.301584 5.509027,-15.004016 C 44.086112,26.71034 66.735526,21.564995 83.955111,32.704018 96.747537,40.979197 103.31365,56.210025 100.50749,71.099154 97.749177,85.734382 83.73888,99.112451 67.643499,102.48012 31.647634,110.01161 1.9155686,73.026942 17.212512,39.747399 c 1.295864,-2.819241 3.411841,-6.512016 4.702172,-8.206167 1.29033,-1.694151 2.193906,-3.232423 2.007945,-3.418383 -0.556167,-0.556168 -5.811066,6.879456 -8.099152,11.460211 -4.263086,8.534708 -5.446632,13.839848 -5.435915,24.36601 0.0081,7.986799 0.278444,10.409539 1.656486,14.846651 7.982231,25.701719 30.26523,40.858929 57.041808,38.800639 3.126346,-0.24032 7.580341,-0.98543 9.897769,-1.65579 z M 63.401598,101.74073 C 63.012757,101.59014 60.308546,100.9834 57.39224,100.39242 54.475933,99.801442 49.828451,98.204911 47.0645,96.844569 37.384792,92.080484 28.242849,79.916297 25.530015,68.190971 24.280652,62.791016 24.464897,52.503234 25.909858,46.981469 32.113878,23.273475 56.894867,8.4565101 80.32128,14.447977 c 6.084822,1.556237 12.773444,4.709254 16.866064,7.950675 1.47901,1.171393 2.855066,1.963843 3.057906,1.761 0.20284,-0.202844 -1.691957,-1.839341 -4.210677,-3.63666 C 76.693473,6.721469 51.551554,6.6348853 34.983066,20.312742 14.302352,37.385384 12.337559,67.818054 30.634487,87.667875 c 6.158704,6.68141 16.9981,12.327924 26.195672,13.645995 4.755758,0.68153 7.7274,0.87456 6.571439,0.42686 z"
   id="path66" /><path
   style="font-variation-settings:normal;opacity:1;vector-effect:none;fill:#00aeef;fill-opacity:1;stroke:none;stroke-width:0;stroke-linecap:butt;stroke-linejoin:miter;stroke-miterlimit:4;stroke-dasharray:none;stroke-dashoffset:0;stroke-opacity:1;stop-color:#000000;stop-opacity:1;paint-order:markers stroke fill"
   d="M 56.350516,169.8929 C 31.384505,146.26049 8.5683255,108.14295 2.533513,79.98426 0.75872147,71.70301 0.47237828,60.351429 1.8539168,53.042853 6.7009286,27.40133 26.558118,7.3007435 52.301519,1.9768958 60.496608,0.28211596 73.531179,0.95939869 81.429675,3.4904095 107.17573,11.740525 123.70205,31.535286 126.68453,57.69538 c 2.51415,22.052224 -8.54942,52.24826 -30.618928,83.56897 -10.796477,15.32219 -28.447447,34.3881 -31.836055,34.3881 -1.276534,0 -3.550642,-1.66237 -7.879031,-5.75955 z m 14.120916,-52.23427 c 7.748206,-0.87258 11.871736,-2.13381 18.528734,-5.66725 7.239623,-3.84268 12.293504,-7.86256 16.704874,-13.287148 4.94458,-6.080262 7.65289,-11.047647 10.08357,-18.494544 1.75548,-5.378277 1.96445,-7.048794 1.98991,-15.907126 0.0273,-9.492642 -0.0655,-10.143443 -2.26559,-15.899972 -5.18597,-13.56887 -14.6081,-22.95951 -28.256616,-28.162184 -4.312231,-1.64378 -5.742494,-1.81862 -15.017423,-1.835776 -9.483436,-0.01754 -10.628796,0.125438 -15.291782,1.908931 -2.772287,1.060342 -6.589997,2.780829 -8.4838,3.823305 -4.909161,2.702331 -14.353811,12.434724 -17.028466,17.547259 -2.776665,5.307522 -5.172761,13.806444 -5.077221,18.008835 0.06975,3.0681 0.125372,2.977771 1.393641,-2.263381 1.921031,-7.938703 5.031844,-13.557602 10.574614,-19.100371 14.836304,-14.836304 36.992223,-14.794669 51.587598,0.09694 7.402039,7.55227 10.593125,15.462543 10.581445,26.229902 -0.0116,10.714022 -5.12781,20.83953 -14.265613,28.233268 -8.354338,6.759815 -17.290133,9.943842 -27.906851,9.943842 -11.538967,0 -21.664995,-3.979285 -29.903987,-11.751535 -16.85704,-15.902078 -19.6339494,-38.62145 -7.076371,-57.895561 2.908067,-4.463473 3.25563,-5.29315 2.217375,-5.29315 -1.811365,0 -9.649771,13.686909 -11.741663,20.502518 -1.596373,5.201155 -2.264711,20.456221 -1.145449,26.14532 1.981661,10.07259 7.240312,19.817225 14.905626,27.621128 8.608325,8.76397 19.74484,14.19593 31.702059,15.46304 2.978013,0.31559 5.732711,0.6135 6.121552,0.66203 0.388841,0.0485 3.570266,-0.23422 7.069834,-0.62832 z M 63.048107,101.51052 C 62.464845,101.19556 60.078776,100.54184 57.745731,100.0578 55.412686,99.573758 50.91788,97.941927 47.757273,96.4315 40.253325,92.845425 34.018162,86.322974 29.537308,77.372034 25.729578,69.765724 24.496502,63.374669 25.182609,54.801544 26.106652,43.255323 30.357297,34.505832 39.115811,26.12156 47.823803,17.785652 57.773615,13.75325 69.63419,13.75325 c 9.558978,0 17.201829,2.346805 25.779475,7.915813 5.230515,3.3959 6.479215,3.197272 2.138631,-0.340187 C 92.845738,17.493167 85.93897,14.017148 78.955233,11.969405 71.007276,9.6389384 59.688489,9.3214138 52.443356,11.225671 39.533916,14.618693 28.377404,23.606784 22.817654,35.093211 14.708369,51.84697 16.643063,70.331246 28.058699,85.166723 33.544555,92.296 44.437133,98.972617 53.949836,101.03671 c 5.042134,1.09407 10.802406,1.39404 9.098271,0.47381 z"
   id="path68" /></svg>
